<svg xmlns="http://www.w3.org/2000/svg" version="1.1" xmlns:xlink="http://www.w3.org/1999/xlink" xmlns:svgjs="http://svgjs.com/svgjs" width="1440" height="560" preserveAspectRatio="none" viewBox="0 0 1440 560"><g mask="url(&quot;#SvgjsMask1029&quot;)" fill="none">
    <rect fill="rgba(17, 24, 39, 1)"></rect>
    <path d="M1136.8 8.74L1171.74 8.74L1171.74 43.68L1136.8 43.68z" stroke="rgba(8, 87, 66, 1)"></path>
    <path d="M972.12 131.17a45.25 45.25 0 1 0-87.17 24.32z" stroke="rgba(8, 87, 66, 1)"></path>
    <path d="M320.5 303.3 a34.2 34.2 0 1 0 68.4 0 a34.2 34.2 0 1 0 -68.4 0z" stroke="rgba(16, 169, 129, 1)"></path>
    <path d="M20.29 216.47a0.47 0.47 0 1 0 0.17-0.93z" fill="rgba(16, 169, 129, 1)"></path>
    <path d="M948.32 435.26 a19.83 19.83 0 1 0 39.66 0 a19.83 19.83 0 1 0 -39.66 0z" fill="rgba(8, 87, 66, 1)"></path>
    <path d="M892.13 105.37 a31.53 31.53 0 1 0 63.06 0 a31.53 31.53 0 1 0 -63.06 0z" stroke="rgba(16, 169, 129, 1)"></path>
    <path d="M161.58 447.07 a20.08 20.08 0 1 0 40.16 0 a20.08 20.08 0 1 0 -40.16 0z" stroke="rgba(8, 87, 66, 1)"></path>
    <path d="M1221.31 238.05L1241.6 238.05L1241.6 258.34L1221.31 258.34z" fill="rgba(16, 169, 129, 1)"></path>
    <path d="M1055.49 537.43L1091.3 537.43L1091.3 557.75L1055.49 557.75z" fill="rgba(16, 169, 129, 1)"></path>
    <path d="M1223.31 402.48L1264.21 402.48L1264.21 404.06L1223.31 404.06z" stroke="rgba(8, 87, 66, 1)"></path>
    <path d="M295.57 271.21a13.38 13.38 0 1 0-26.51 3.59z" stroke="rgba(16, 169, 129, 1)"></path>
    <path d="M585.57 202.85L627.31 202.85L627.31 257.01L585.57 257.01z" fill="rgba(8, 87, 66, 1)"></path>
    <path d="M147.12 312.51a1.06 1.06 0 1 0-2-0.71z" stroke="rgba(8, 87, 66, 1)"></path>
    <path d="M1392.23 454.76a55.11 55.11 0 1 0-28.96-106.35z" fill="rgba(8, 87, 66, 1)"></path>
    <path d="M810.34 304.45L863.6 304.45L863.6 357.71L810.34 357.71z" fill="rgba(16, 169, 129, 1)"></path>
    <path d="M-38.45 50.82 a43.47 43.47 0 1 0 86.94 0 a43.47 43.47 0 1 0 -86.94 0z" fill="rgba(16, 169, 129, 1)"></path>
    <path d="M695.51 380.45L729.93 380.45L729.93 414.87L695.51 414.87z" fill="rgba(16, 169, 129, 1)"></path>
    <path d="M1403.01 81.04L1448.93 81.04L1448.93 121.5L1403.01 121.5z" fill="rgba(16, 169, 129, 1)"></path>
    <path d="M346.28 70.2L383.25 70.2L383.25 107.17L346.28 107.17z" stroke="rgba(8, 87, 66, 1)"></path>
    <!-- <path d="M78.92 80.96L84.19 80.96L84.19 109.66L78.92 109.66z" stroke="rgba(16, 169, 129, 1)"></path> -->
    <path d="M834.36 345.19L879.41 345.19L879.41 390.24L834.36 390.24z" stroke="rgba(16, 169, 129, 1)"></path>
    <path d="M376.47 89.99a24.43 24.43 0 1 0 1.94-48.82z" fill="rgba(8, 87, 66, 1)"></path>
    <path d="M983.43 518.79L987.47 518.79L987.47 522.83L983.43 522.83z" fill="rgba(8, 87, 66, 1)"></path>
    <path d="M489.63 315.35L520.5 315.35L520.5 343.45L489.63 343.45z" stroke="rgba(16, 169, 129, 1)"></path>
    <path d="M254.85 165.77a5.8 5.8 0 1 0 9.84 6.14z" fill="rgba(8, 87, 66, 1)"></path>
    <path d="M1008.62 543.87L1057.18 543.87L1057.18 592.43L1008.62 592.43z" fill="rgba(8, 87, 66, 1)"></path>
    <path d="M506.58 495.33a3.49 3.49 0 1 0-3.1 6.25z" stroke="rgba(8, 87, 66, 1)"></path>
    <path d="M498.44 83.56L522.86 83.56L522.86 125.24L498.44 125.24z" stroke="rgba(16, 169, 129, 1)"></path>
    <path d="M779.09 251.87L789.69 251.87L789.69 283.72L779.09 283.72z" fill="rgba(8, 87, 66, 1)"></path>
    <path d="M956.26 192.85 a46.78 46.78 0 1 0 93.56 0 a46.78 46.78 0 1 0 -93.56 0z" fill="rgba(16, 169, 129, 1)"></path>
    <path d="M1370.88 73.2a10.34 10.34 0 1 0-16.24-12.81z" stroke="rgba(8, 87, 66, 1)"></path>
    <path d="M216.52 8.83a25.73 25.73 0 1 0 36.58 36.19z" stroke="rgba(8, 87, 66, 1)"></path>
    <path d="M811.21 489.98L836.95 489.98L836.95 509.82L811.21 509.82z" stroke="rgba(16, 169, 129, 1)"></path>
    </g>
    <!-- <defs><mask id="SvgjsMask1029"><rect width="1440" height="560" fill="#ffffff"></rect></mask></defs> -->
</svg>